<mxfile host="app.diagrams.net" modified="2020-10-06T16:21:36.450Z" agent="5.0 (Windows NT 10.0; Win64; x64) AppleWebKit/537.36 (KHTML, like Gecko) Chrome/85.0.4183.121 Safari/537.36" etag="ilfPTQaa-z-LVuxcbxu2" version="13.1.1" type="github" pages="2">
  <diagram id="kr7ggvs04BOKmIY-GqQs" name="Page-1">
    <mxGraphModel dx="1422" dy="832" grid="1" gridSize="10" guides="1" tooltips="1" connect="1" arrows="1" fold="1" page="1" pageScale="1" pageWidth="850" pageHeight="1100" math="0" shadow="0">
      <root>
        <mxCell id="0" />
        <mxCell id="1" parent="0" />
        <mxCell id="BzKddRkQgOhSOBJjnhb2-6" value="" style="whiteSpace=wrap;html=1;aspect=fixed;fillColor=#e6d0de;strokeColor=#996185;gradientColor=#d5739d;" parent="1" vertex="1">
          <mxGeometry x="213" y="190" width="425" height="425" as="geometry" />
        </mxCell>
        <mxCell id="BzKddRkQgOhSOBJjnhb2-4" value="Name/Username" style="text;html=1;align=center;verticalAlign=middle;resizable=0;points=[];autosize=1;fillColor=#dae8fc;gradientColor=#7ea6e0;strokeColor=#6c8ebf;" parent="1" vertex="1">
          <mxGeometry x="370.5" y="260" width="110" height="20" as="geometry" />
        </mxCell>
        <mxCell id="BzKddRkQgOhSOBJjnhb2-7" value="Password" style="text;html=1;align=center;verticalAlign=middle;resizable=0;points=[];autosize=1;fillColor=#dae8fc;gradientColor=#7ea6e0;strokeColor=#6c8ebf;" parent="1" vertex="1">
          <mxGeometry x="370.5" y="290" width="70" height="20" as="geometry" />
        </mxCell>
        <mxCell id="BzKddRkQgOhSOBJjnhb2-8" value="Email" style="text;html=1;align=center;verticalAlign=middle;resizable=0;points=[];autosize=1;fillColor=#dae8fc;gradientColor=#7ea6e0;strokeColor=#6c8ebf;" parent="1" vertex="1">
          <mxGeometry x="370.5" y="320" width="50" height="20" as="geometry" />
        </mxCell>
        <mxCell id="BzKddRkQgOhSOBJjnhb2-10" value="&lt;font style=&quot;font-size: 24px&quot;&gt;&lt;b&gt;Sign-up Page&lt;/b&gt;&lt;/font&gt;" style="text;html=1;strokeColor=none;fillColor=none;align=center;verticalAlign=middle;whiteSpace=wrap;rounded=0;" parent="1" vertex="1">
          <mxGeometry x="333.25" y="200" width="184.5" height="20" as="geometry" />
        </mxCell>
        <mxCell id="BzKddRkQgOhSOBJjnhb2-12" value="Submit" style="rounded=1;fillColor=#007FFF;align=center;strokeColor=none;html=1;fontColor=#ffffff;fontSize=12" parent="1" vertex="1">
          <mxGeometry x="385" y="400" width="80" height="33" as="geometry" />
        </mxCell>
        <mxCell id="BzKddRkQgOhSOBJjnhb2-14" value="Your form has been submited" style="shape=rect;rounded=1;strokeColor=none;fillColor=#F6F6F8;gradientColor=none;shadow=0;glass=0;dashed=1;fontFamily=Helvetica;fontSize=12;fontColor=#333333;align=center;html=0;verticalAlign=top;whiteSpace=wrap;spacing=8;spacingTop=0;" parent="1" vertex="1">
          <mxGeometry x="343" y="490" width="165" height="50" as="geometry" />
        </mxCell>
      </root>
    </mxGraphModel>
  </diagram>
  <diagram id="-tOGmchcHH1QTG703dRE" name="Page-2">
    <mxGraphModel dx="1422" dy="832" grid="1" gridSize="10" guides="1" tooltips="1" connect="1" arrows="1" fold="1" page="1" pageScale="1" pageWidth="850" pageHeight="1100" math="0" shadow="0">
      <root>
        <mxCell id="65Yj3Tl10LSTbRstxCkm-0" />
        <mxCell id="65Yj3Tl10LSTbRstxCkm-1" parent="65Yj3Tl10LSTbRstxCkm-0" />
      </root>
    </mxGraphModel>
  </diagram>
</mxfile>
